<svg width="154" height="154" viewBox="0 0 154 154" fill="none" xmlns="http://www.w3.org/2000/svg">
<circle cx="77" cy="77" r="74.5" fill="#ECF0F5" stroke="url(#paint0_linear)" stroke-width="5"/>
<circle cx="77" cy="77" r="70" fill="url(#paint1_linear)"/>
<path d="M97.7374 53.5957C102.085 54.3775 105.651 56.7212 108.438 60.6268C110.891 64.0871 112.563 68.4397 113.454 73.6846C114.235 78.4842 114.177 83.2822 113.286 88.0818C111.949 96.0052 109.273 102.646 105.261 108.003C100.466 114.477 94.4478 117.713 87.2024 117.713C85.4178 117.713 83.4692 117.156 81.3498 116.039C79.9001 115.147 78.2846 114.7 76.5 114.7C74.7154 114.7 73.1016 115.147 71.6502 116.039C69.5308 117.156 67.5822 117.713 65.7976 117.713C58.5522 117.713 52.5338 114.477 47.7393 108.003C43.7265 102.646 41.0513 96.0052 39.7137 88.0818C38.8231 83.2822 38.7645 78.4842 39.5463 73.6846C40.4369 68.4397 42.1093 64.0871 44.5619 60.6268C47.3492 56.7212 50.915 54.3775 55.2626 53.5957C57.9378 53.1487 61.6157 53.5404 66.2981 54.7675C70.3109 55.8841 73.711 57.2234 76.4983 58.7853C79.2857 57.2234 82.6857 55.8841 86.6985 54.7675C91.3826 53.5404 95.0622 53.1487 97.7374 53.5957ZM88.54 46.7319C86.9797 48.1834 84.9156 49.243 82.3526 49.9127C80.568 50.4701 78.6194 50.7497 76.5 50.7497L73.9922 50.5823C73.7696 49.0204 73.7696 47.2341 73.9922 45.2252C74.4392 41.2075 75.7199 38.1389 77.8376 36.0178C79.3978 34.5664 81.462 33.5067 84.025 32.837C85.8096 32.2796 87.7582 32 89.8776 32L92.3854 32.1674L92.5528 34.6785C92.5528 36.7996 92.2732 38.7516 91.7174 40.5378C91.0494 43.1042 89.9914 45.17 88.54 46.7319Z" fill="white"/>
<defs>
<linearGradient id="paint0_linear" x1="77" y1="5" x2="77" y2="149" gradientUnits="userSpaceOnUse">
<stop stop-color="#107AA2"/>
<stop offset="1" stop-color="#144155"/>
</linearGradient>
<linearGradient id="paint1_linear" x1="77" y1="7" x2="77" y2="147" gradientUnits="userSpaceOnUse">
<stop stop-color="#107AA2"/>
<stop offset="1" stop-color="#144155"/>
</linearGradient>
</defs>
</svg>
